<svg width="400" height="400" viewBox="0 0 400 400" xmlns="http://www.w3.org/2000/svg"><title>alerter-bug</title><g transform="translate(10 10)" fill="none" fill-rule="evenodd"><rect stroke="#232C38" stroke-width="20" fill="#16212F" width="380" height="380" rx="70"/><path d="M192 155v52" stroke="#EDEDED" stroke-width="22"/><circle fill="#EDEDED" cx="192.29" cy="239.01" r="11.5"/><path d="M215.72 181.55v53.03c-.044 14.413-11.865 26.087-26.46 26.13-14.595-.043-26.416-11.717-26.46-26.13v-53.03m-77.301 81.046l-.276-72.645 25.136.027s12.286 3.808 13.443 13.487c1.157 9.68-4.357 20.308-4.357 20.308l-29.254.538 30.254.223s13.565 1.635 13.565 19.407-12.824 18.655-12.824 18.655H85.5zm209.428-46.591c3.182-31.758-32.138-30.676-43.13-21.089-10.994 9.588-10.09 54.524 1 62.451 11.088 7.928 30.6 5.44 38.245 1.386 5.798-3.075 7.91-19.45 6.944-25.9-.308-2.055-25.773 0-25.773 0" stroke="#F63" stroke-width="20"/><path d="M193 271.54h70.4a20.57 20.57 0 0 0 17.82-30.86l-70.4-121.93a20.57 20.57 0 0 0-35.64 0l-70.4 121.93a20.57 20.57 0 0 0 17.82 30.86H193" stroke="#F63" stroke-width="22"/><path d="M264.66 141l13.56-15.06a12.16 12.16 0 0 0 0-16.27l-6.22-6.93a12.16 12.16 0 0 1 0-16.27l6.23-6.93a12.16 12.16 0 0 0 0-16.27L264.66 48.2m-80 92.8l13.58-15.09a12.12 12.12 0 0 0 0-16.22l-6.28-7a12.12 12.12 0 0 1 0-16.22l6.28-7a12.12 12.12 0 0 0 0-16.22L184.66 48.2m-80 92.8l13.6-15.11a12.09 12.09 0 0 0 0-16.18l-6.32-7a12.09 12.09 0 0 1 0-16.18l6.32-7a12.09 12.09 0 0 0 0-16.18l-13.6-15.11" stroke="#F63" stroke-width="16"/></g></svg>