<svg width="60" height="60" viewBox="0 0 120 120" xmlns="http://www.w3.org/2000/svg" xmlns:xlink="http://www.w3.org/1999/xlink"><title>auctionHouse</title><defs><path id="a" d="M3.072 7.572h13.812v16.172H3.072z"/><mask id="y" x="0" y="0" width="13.812" height="16.172" fill="#fff"><use xlink:href="#a"/></mask><rect id="b" x=".069" y=".384" width="19.817" height="7.188" rx="3.594"/><mask id="z" x="0" y="0" width="19.817" height="7.188" fill="#fff"><use xlink:href="#b"/></mask><rect id="c" x=".069" y="23.744" width="19.817" height="7.188" rx="3.594"/><mask id="A" x="0" y="0" width="19.817" height="7.188" fill="#fff"><use xlink:href="#c"/></mask><path id="d" d="M16.884 14.161h13.812v2.995H16.884z"/><mask id="B" x="0" y="0" width="13.812" height="2.995" fill="#fff"><use xlink:href="#d"/></mask><rect id="e" x="30.696" y="13.262" width="16.214" height="5.391" rx="2.695"/><mask id="C" x="0" y="0" width="16.214" height="5.391" fill="#fff"><use xlink:href="#e"/></mask><path id="f" d="M3.003 7.188h13.812V23.36H3.003z"/><mask id="D" x="0" y="0" width="13.812" height="16.172" fill="#fff"><use xlink:href="#f"/></mask><rect id="g" width="19.817" height="7.188" rx="3.594"/><mask id="E" x="0" y="0" width="19.817" height="7.188" fill="#fff"><use xlink:href="#g"/></mask><rect id="h" y="23.359" width="19.817" height="7.188" rx="3.594"/><mask id="F" x="0" y="0" width="19.817" height="7.188" fill="#fff"><use xlink:href="#h"/></mask><path id="i" d="M16.814 13.776h13.812v2.995H16.814z"/><mask id="G" x="0" y="0" width="13.812" height="2.995" fill="#fff"><use xlink:href="#i"/></mask><rect id="j" x="30.626" y="12.878" width="16.214" height="5.391" rx="2.695"/><mask id="H" x="0" y="0" width="16.214" height="5.391" fill="#fff"><use xlink:href="#j"/></mask><path id="k" d="M3.003 7.188h13.812V23.36H3.003z"/><mask id="I" x="0" y="0" width="13.812" height="16.172" fill="#fff"><use xlink:href="#k"/></mask><rect id="l" width="19.817" height="7.188" rx="3.594"/><mask id="J" x="0" y="0" width="19.817" height="7.188" fill="#fff"><use xlink:href="#l"/></mask><rect id="m" y="23.359" width="19.817" height="7.188" rx="3.594"/><mask id="K" x="0" y="0" width="19.817" height="7.188" fill="#fff"><use xlink:href="#m"/></mask><path id="n" d="M16.814 13.776h13.812v2.995H16.814z"/><mask id="L" x="0" y="0" width="13.812" height="2.995" fill="#fff"><use xlink:href="#n"/></mask><rect id="o" x="30.626" y="12.878" width="16.214" height="5.391" rx="2.695"/><mask id="M" x="0" y="0" width="16.214" height="5.391" fill="#fff"><use xlink:href="#o"/></mask><rect id="p" y="6.662" width="43.69" height="7.328" rx="3.664"/><mask id="N" x="0" y="0" width="43.69" height="7.328" fill="#fff"><use xlink:href="#p"/></mask><rect id="q" x="7.282" width="27.803" height="7.328" rx="3"/><mask id="O" x="0" y="0" width="27.803" height="7.328" fill="#fff"><use xlink:href="#q"/></mask><rect id="r" y="6.662" width="43.69" height="7.328" rx="3.664"/><mask id="P" x="0" y="0" width="43.69" height="7.328" fill="#fff"><use xlink:href="#r"/></mask><rect id="s" x="7.282" width="27.803" height="7.328" rx="3"/><mask id="Q" x="0" y="0" width="27.803" height="7.328" fill="#fff"><use xlink:href="#s"/></mask><rect id="t" y="6.662" width="43.69" height="7.328" rx="3.664"/><mask id="R" x="0" y="0" width="43.69" height="7.328" fill="#fff"><use xlink:href="#t"/></mask><rect id="u" x="7.282" width="27.803" height="7.328" rx="3"/><mask id="S" x="0" y="0" width="27.803" height="7.328" fill="#fff"><use xlink:href="#u"/></mask><path id="v" d="M10 22h63v62H10z"/><mask id="T" x="0" y="0" width="63" height="62" fill="#fff"><use xlink:href="#v"/></mask><path id="w" d="M10 22h63v62H10z"/><mask id="U" x="0" y="0" width="63" height="62" fill="#fff"><use xlink:href="#w"/></mask><path id="x" d="M10 22h63v62H10z"/><mask id="V" x="0" y="0" width="63" height="62" fill="#fff"><use xlink:href="#x"/></mask></defs><g fill="none" fill-rule="evenodd"><ellipse stroke="#898989" stroke-width="3" cx="60" cy="62" rx="56" ry="56"/><ellipse stroke="#AEACAC" stroke-width="3" cx="58.5" cy="60.5" rx="56.5" ry="56.5"/><ellipse stroke="#F9F9F9" stroke-width="3" cx="57.5" cy="57.5" rx="56.5" ry="56.5"/><g stroke-width="6"><g transform="rotate(19 -110.932 159.15)" stroke="#898989"><use mask="url(#y)" xlink:href="#a"/><use mask="url(#z)" xlink:href="#b"/><use mask="url(#A)" xlink:href="#c"/><use mask="url(#B)" xlink:href="#d"/><use mask="url(#C)" xlink:href="#e"/></g><g transform="rotate(19 -107.045 156.468)" stroke="#A2A2A2"><use mask="url(#D)" xlink:href="#f"/><use mask="url(#E)" xlink:href="#g"/><use mask="url(#F)" xlink:href="#h"/><use mask="url(#G)" xlink:href="#i"/><use mask="url(#H)" xlink:href="#j"/></g><g transform="rotate(19 -100.487 151.682)" stroke="#FAF8F8"><use mask="url(#I)" xlink:href="#k"/><use mask="url(#J)" xlink:href="#l"/><use mask="url(#K)" xlink:href="#m"/><use mask="url(#L)" xlink:href="#n"/><use mask="url(#M)" xlink:href="#o"/></g></g><g stroke-width="6"><g transform="translate(37.31 81.331)" stroke="#898989"><use mask="url(#N)" xlink:href="#p"/><use mask="url(#O)" xlink:href="#q"/></g><g transform="translate(35.986 79.999)" stroke="#A8A7A7"><use mask="url(#P)" xlink:href="#r"/><use mask="url(#Q)" xlink:href="#s"/></g><g transform="translate(34 78)"><use stroke="#FCFCFC" mask="url(#R)" xlink:href="#t"/><use stroke="#F6F6F6" mask="url(#S)" xlink:href="#u"/></g></g><g transform="translate(20 18)" stroke="#898989"><use mask="url(#T)" stroke-width="6" xlink:href="#v"/><path stroke-width="3" d="M42 0l42 22H0z"/></g><g transform="translate(17 16)" stroke="#CACACA"><use mask="url(#U)" stroke-width="6" xlink:href="#w"/><path stroke-width="3" d="M42 0l42 22H0z"/></g><g stroke="#F7F6F6" transform="translate(15 14)"><use mask="url(#V)" stroke-width="6" xlink:href="#x"/><path stroke-width="3" d="M42 0l42 22H0z"/></g></g></svg>