<svg xmlns="http://www.w3.org/2000/svg" height="250" width="250" viewBox="0 0 250 250"><path stroke="#979797" fill="#FC8585" d="M0 0h250v250H0z"/><path d="M66.6 36.6c0 5.4 59.4-8.5 72.4 9.9 13 19.4 5 34.2 5 34.2s0-10.3 10-8.2c5 1.1 1 6.8-2 14.8S141 111 141 111c15 3 26-16.9 22-62.1-5-18.2-9-39.52-40-40.24C91.5 8.05 66.6 28.5 66.6 36.6z" fill="#8b5231"/><path d="M75.5 39.2L67.1 37s21.9-3.2 29.1-5.2c7.2-2 33.8-3.7 45.8 12.4-18-12.4-32-5-43.5-5z" fill="#5c2000"/><path d="M88.5 127s11.1 14 25.5 7c14-10 20-10 20-10s0 11 6 16c6 4 8 0-5 11-12 11-21 11-27 13-4 1-16.2-14-20.8-23-2.8-6 1.3-14 1.3-14z" fill="#9a3e13"/><path d="M87.8 135l-1.7 29 13.2-12z" transform="matrix(1.04 0 0 .87 -4.2 12.1)" fill="#f7f6f6" stroke="#9c9191"/><path d="M106 149.19l-6-5-11.2 9 4.5 12-9.2 14 9.2 33 14.7-29-1-16 9-11-4-9z" fill="#e44a75"/><path d="M88.9 152.73l-6.2 5 .2 22 14.8-13zm27.1 4l-13 10 6 16 11-19z" fill="#f7f4f4" stroke="#979797"/><path d="M86.1 132l-8.2 1-18.7 21 12.5 6-12 4 24.1 81s16.2-8 15.2-13c-15.2-42-14.6-93-12.9-100z" fill="#282828" stroke="#979797"/><path d="M170 139s-22-4-26-7c-33 33-64 106-64 106l8.9 8s13.1-24 31.1-45 38-30 38-30l-10-14 21-1z" fill="#282828" stroke="#979797"/><path d="M75.2 136s-32 11-47.7 28C15 185 6.66 214 6.66 214s68.24 30 77.44 30l-25.6-79 11.5-4-11.6-6zm93.8 4l1 17-21 1 8 14c-35 13-68.8 74-68.8 74l96.8 1c43 0 57-18 57-18s-8-22-20-51c-18-28-53-38-53-38z" fill="#3e3636" stroke="#979797"/><path d="M134 200l6 21 15-15-7-1-6 4-2-7-6-2z" fill="#f03535"/><path d="M143 208l-5 1 2-5-2-4 5 1 3-4v5l4 1-4 3v5" fill="#fa9db5"/><path d="M111.87 146.5s8-5 15-14 7-10 7-10c3 8 9 12 9 12-7 7-23 30-23 30z" fill="#fcf7f7" stroke="#979797"/><path d="M99.3 136c6.4 3 24.7-5 34.7-14 9-10 13-25.1 13-25.1 10-7.1 15-17.9 9-24.9-6-1.3-6-6.1-11 5.9 3-5.8 4-22.8-2-33.7-7-11-30-6.8-44.4-5.5C84 40 74.8 33.8 73.3 45.4c-2.4 13.8-1.8 30.6.4 45.3C76 117 92.8 132 99.3 136z" fill="#c3662c"/></svg>