<?xml version="1.0" encoding="UTF-8" standalone="no"?>
<svg id="cornerNum" width="20" height="20" xmlns:rdf="http://www.w3.org/1999/02/22-rdf-syntax-ns#" xmlns="http://www.w3.org/2000/svg" version="1.1" xmlns:cc="http://creativecommons.org/ns#" xmlns:xlink="http://www.w3.org/1999/xlink" viewBox="0 0 360 360" xmlns:dc="http://purl.org/dc/elements/1.1/">
 <defs id="defs6">
  <linearGradient id="linearGradient4355" y2="-446.93" gradientUnits="userSpaceOnUse" y1="-446.93" gradientTransform="translate(1742.4,-742.17)" x2="1377.5" x1="1079">
   <stop id="stop4351" stop-color="#f63200" offset="0"/>
   <stop id="stop4353" stop-color="#f63200" stop-opacity=".69192" offset="1"/>
  </linearGradient>
 </defs>
 <g id="cornerNum" transform="translate(-166.3,-5.8275)">
  <path id="path4358" d="m1375.2-655.74c-8.1 0.96-14.3 2.65-20.5 7.78-3.3 2.81-7.6 8.13-10.3 11.56 20.5 0.1 40.9 0.15 61.4 0.23-4.1-5.43-5.9-8.87-11.6-12.6-5.4-3-12.7-6.97-19-6.97z" transform="matrix(1.6025,0,0,1.9964,-1980.1,1316.6)" fill="#810000"/>
  <path id="planeForNum" d="m1078.8-596.15c1.8 0.3 3.6 0.3 5.5 0.84 7.7 2.34 14.6 6.84 20 12.1 4 3.93 7.3 8.4 10 12.76 3.2 5.03 6.1 10.13 8.3 15.21 4.6 10.03 8.3 20.32 11.7 29.96 1.9 5.05 3.8 10.18 6 15.43 2.3 5.25 4.9 10.88 7.6 16.64 2.8 5.77 5.8 11.67 8.8 17.49 3.1 5.81 6.2 11.53 9.4 16.92 3.1 5.39 6.2 10.45 9.2 14.95 3.3 4.75 6.5 9.06 9.8 13.05 3.3 3.98 6.6 7.64 10 11.08 3.4 3.43 6.8 6.65 10.3 9.76 3.6 3.11 7.2 6.11 10.9 9.11 4 3 8.1 5.75 12.2 8.31 4.2 2.57 8.3 4.94 12.6 7.19 4.2 2.25 8.6 4.38 12.9 6.44 4.4 2.06 8.8 4.06 13.3 6.06 9 4 17.8 7.75 26.8 11.5s18.2 7.5 28.2 11.5c5 2.25 9.9 4.63 14.6 7.25 2.4 1.31 4.7 2.69 6.9 4.14s4.4 2.99 6.5 4.61c2.2 1.63 4.2 3.34 6.2 5.17s3.9 3.77 5.8 5.83c1.8 2.06 3.6 4.25 5.3 6.58s3.2 4.8 4.7 7.42l5.2 11.33v-298.81z" transform="translate(-851.91,604.48)" fill="url(#linearGradient4355)"/>
  <path id="path4345" d="m1375.2-655.74c-8.1 0.96-15.6 4.78-21.8 9.91-3.3 2.81-6.3 6-9 9.43 20.5 0.1 40.9 0.15 61.4 0.23-4.1-5.43-9-10.29-14.7-14.02-5.4-3-9.6-5.55-15.9-5.55z" transform="matrix(0,1.6025,-1.9964,0,-783.21,-1892.3)" fill="#810000"/>
  <path id="path4331" d="m804.09-596.33v20.45s292.71 0.55 292.61 0.45c0 0-0.6-3.32-8.9-13.28-2.7-3.45-4.8-6.96-8.8-7.62z" transform="matrix(-.87914 0 0 -1.122 1228.3 -619.7)" fill="#f98a8a"/>
  <path id="path4347" d="m804.09-596.33v20.45s302.41 0.1 302.31 0 4.3 1.41 3.4 0.27-7.7-2.87-13.1-7.4c-9.1-8.39-9.4-12.11-17.7-13.32z" transform="matrix(-.93696 0 0 -.87776 1275 -496.5)" fill="#d21717"/>
 </g>
 <g id="numberShadow" font-size="180px" font-family="Sans">
  <text id="text4371" style="letter-spacing:0px;color:#000000;text-indent:0;word-spacing:0px;block-progression:tb;text-decoration-line:none;text-transform:none" xml:space="preserve" transform="translate(-29.921,73.539)" line-height="125%" y="111.1" x="232.64" fill="#b3b0b0"><tspan id="tspan4373" y="111.1" x="232.64">5</tspan></text>
  <text id="text4367" style="letter-spacing:0px;color:#000000;text-indent:0;word-spacing:0px;block-progression:tb;text-decoration-line:none;text-transform:none" xml:space="preserve" transform="translate(-22.143,77.782)" line-height="125%" y="111.1" x="232.64" fill="#fdf3f3"><tspan id="tspan4369" y="111.1" x="232.64">5</tspan></text>
 </g>
</svg>