<?xml version="1.0" encoding="UTF-8" standalone="no"?>
<!-- Created with Inkscape (http://www.inkscape.org/) -->
<svg id="sendMessageIcon" xmlns:rdf="http://www.w3.org/1999/02/22-rdf-syntax-ns#" xmlns="http://www.w3.org/2000/svg" height="150px" width="150px" version="1.1" xmlns:cc="http://creativecommons.org/ns#" xmlns:dc="http://purl.org/dc/elements/1.1/" viewBox="0 0 532 531">
 <g id="layer1" transform="translate(0,-522)">
     <g id="envelopeWrapper" fill-opacity="1" transform="translate(0,0)">
            <g id="envelope" transform="translate(-109,46.8)" stroke="#086fff" stroke-width="15" opacity="1" fill-opacity="0.6">
             <rect  transform="translate(-38.4,305)" rx="50.6" ry="57.6" height="230" width="417" y="280" x="201" fill="#fff"/>
             <path d="m181 257s152 85 196 85 184-83 184-83" transform="translate(0,343)" fill="none"/>
             <path  d="m217 278s82 104 165 103c82-2 148-105 148-105" transform="matrix(1,0,0,-1,-1.75,1090)" fill="none"/>
            </g>
            <path id="heart" d="m454 50.3c-27-57.91-87-7.2-87-7.2s-60-49.71-87 8.2c-27 57.7 87 137.7 87 137.7s114-81 87-138.7z"  transform="matrix(.55 0 0 .55 59 685)" fill="#f80c1b"/>
               <animateTransform attributeName="transform" type="translateX" from="-550" to="550"
                                begin="0s" dur="1.5s" repeatCount="indefinite"   />
                 <animate attributeName="opacity" attributeType="XML"
                   from="0"  to="0" begin="0s" dur="1.5s"  values="0;0.4;0.6;1;0.6;0.4; 0" keyTimes="0;0.1;0.15;0.5;0.85;0.9;1"
                   fill="remove" repeatCount="indefinite" /> 
     </g>
  <g id="arrow" fill="#086fff" transform="translate(-119,46.8)">
   <rect  transform="matrix(.812 0 0 1 54.8 343)" height="30" width="118" y="532" x="108"/>
   <rect  transform="matrix(.854 0 0 1 186 343)" height="30" width="118" y="532" x="108"/>
   <rect  transform="matrix(1.39,0,0,1,261,342)" height="30" width="66.2" y="532" x="108"/>
   <path  d="m523 501 1 86 117-49-118-37z" transform="translate(0,343)"/>
  </g>
 </g>
</svg>