<?xml version="1.0" encoding="UTF-8" standalone="no"?>
<svg id="speakAndListenSVG" xmlns:rdf="http://www.w3.org/1999/02/22-rdf-syntax-ns#" xmlns="http://www.w3.org/2000/svg" height="100mm" viewBox="0 0 709 354" width="200mm" version="1.1" xmlns:cc="http://creativecommons.org/ns#" xmlns:dc="http://purl.org/dc/elements/1.1/">
 <g id="layer1" transform="translate(0,-698)">
  <g id="listen" stroke="white" stroke-width="15" fill="none">
   <path id="rect4140" d="m168 8.23 56-1.73v342.5h-51l-13-75s-16 26-31 23-56.3-75-55.3-128 21.1-76.9 38.3-83c16-6.1 48 23 48 23z" transform="translate(480,698)"/>
   <path id="path4144" d="m606 121s-45-6-47 45 41 101 41 101c-16-54-28-75-26-92s19-35 31-26c12 8-2 34-4 46" transform="translate(20,698)"/>
  </g>
  <g id="voiceWave" fill-opacity="0" transform="matrix(1.57,0,0,2.17,-185,-1110)" stroke="white" stroke-width="6.937">
   <path id="path4207" style="color:white" d="m271 226a33.3 37 0 0 1 27 28 33.3 37 0 0 1 -13 39" transform="matrix(.745 0 0 .749 35 752)">
    <animate repeatCount="indefinite" values="0;1;0" dur="1s" attributeName="opacity" from="0s"/>
   </path>
   <path id="path4209" d="m271 226a33.3 37 0 0 1 27 28 33.3 37 0 0 1 -13 39" stroke="white" transform="matrix(.89 0 0 .892 15.6 710)">
    <animate repeatCount="indefinite" values="0;1;0" dur="1.2s" attributeName="opacity" from="0.2s"/>
   </path>
   <path id="path4211" stroke="white" d="m271 226a33.3 37 0 0 1 27 28 33.3 37 0 0 1 -13 39" transform="matrix(.976 -.01 .01 .983 10.3 683)">
    <animate repeatCount="indefinite" values="0;1;0" dur="1.4s" attributeName="opacity" from="0.4s"/>
   </path>
   <path id="path4213" d="m271 226a33.3 37 0 0 1 27 28 33.3 37 0 0 1 -13 39" stroke="white" transform="matrix(1.12 -.012 .013 1.11 -5.84 645)">
    <animate repeatCount="indefinite" values="0;1;0" dur="1.6s" attributeName="opacity" from="0.6s"/>
   </path>
   <path id="path4215" stroke="white" d="m271 226a33.3 37 0 0 1 27 28 33.3 37 0 0 1 -13 39" transform="matrix(1.27 -.013 .014 1.27 -25.4 599)">
    <animate repeatCount="indefinite" values="0;1;0" dur="1.8s" attributeName="opacity" from="0.8s"/>
   </path>
   <path id="path4217" d="m271 226a33.3 37 0 0 1 27 28 33.3 37 0 0 1 -13 39" stroke="white" transform="matrix(1.4 -.014 .016 1.39 -37.2 562)">
    <animate repeatCount="indefinite" values="0;1;0" dur="2s" attributeName="opacity" from="1s"/>
   </path>
   <path id="path4219" stroke="white" d="m271 226a33.3 37 0 0 1 27 28 33.3 37 0 0 1 -13 39" transform="matrix(1.56 -.016 .018 1.55 -57.6 516)">
    <animate repeatCount="indefinite" values="0;1;0" dur="2.2s" attributeName="opacity" from="1.2s"/>
   </path>
   <path id="path4221" d="m271 226a33.3 37 0 0 1 27 28 33.3 37 0 0 1 -13 39" stroke="white" transform="matrix(1.78 -.018 .022 1.77 -94.4 457)">
    <animate repeatCount="indefinite" values="0;1;0" dur="2.4s" attributeName="opacity" from="1.4s"/>
   </path>
   <path id="path4223" d="m271 226a33.3 37 0 0 1 27 28 33.3 37 0 0 1 -13 39" stroke="white" transform="matrix(.609 0 0 .615 53.4 791)">
    <animate repeatCount="indefinite" values="0;1;0" dur="2.6s" attributeName="opacity" from="1.6s"/>
   </path>
  </g>
  <g id="g4154">
   <path id="speak" d="m6.17 6.5 90.83-0.74 63 149.24l-58-2 15 53-91.7 29 96.7 34-23.9 80h-91.93z" transform="translate(0,698)" stroke="white" stroke-width="15" fill="none"/>
   <ellipse id="path4150" stroke="white" style="color:white"  fill-opacity="0" rx="18.3" ry="15.8" transform="translate(0,698)" cy="57.3" cx="69.6" stroke-width="5.002"/>
  </g>
 </g>
</svg>
