<svg width="60" height="60" viewBox="0 0 119 121" xmlns="http://www.w3.org/2000/svg"><title>Page-1</title><g fill="none"><g transform="translate(2 2)" stroke-width="3" fill-rule="evenodd"><circle stroke="#898989" cx="59" cy="61" r="56"/><circle stroke="#AEACAC" cx="57.5" cy="59" r="56"/><circle stroke="#F9F9F9" cx="56" cy="56" r="56"/><g transform="rotate(19 -141.952 96.223)" stroke="#898989"><path d="M3.519 8.753h15.823v18.695H3.519z"/><rect x=".079" y=".444" width="22.703" height="8.308" rx="4.154"/><rect x=".079" y="27.448" width="22.703" height="8.308" rx="4.154"/><path d="M19.343 16.37h15.823v3.462H19.343z"/><rect x="35.167" y="15.331" width="18.575" height="6.231" rx="3"/></g><g transform="rotate(19 -136.892 90.112)" stroke="#AEACAC"><path d="M4.458 8.326h15.824v18.695H4.458z"/><rect x=".84" y=".125" width="22.704" height="8.309" rx="4.154"/><rect x="2.973" y="27.021" width="22.704" height="8.309" rx="4.154"/><path d="M20.282 15.943h15.824v3.462H20.282z"/><rect x="36.106" y="14.904" width="18.576" height="6.232" rx="3"/></g><g transform="rotate(19 -129.756 87.452)" stroke="#F9F9F9"><path d="M3.51 8.335h15.824V27.03H3.51z"/><rect x=".074" y=".389" width="22.704" height="8.309" rx="4.154"/><rect x=".623" y="27.681" width="22.704" height="8.309" rx="4.154"/><path d="M19.334 15.951h15.824v3.462H19.334z"/><rect x="35.158" y="14.912" width="18.576" height="6.232" rx="3"/></g><g transform="translate(44.565 16.16)" stroke="#898989"><ellipse cx="29.217" cy="28.42" rx="29.217" ry="28.42"><animate attributeName="fill" from="rgba(174, 172, 172, 0.1)" to="rgba(174, 172, 172, 0.1)" dur="1.5s" begin="1.s" values="rgba(174, 172, 172,0);rgba(174, 172, 172,0); rgba(174, 172, 172, 1); rgba(174, 172, 172, 0.1)" keyTimes="0; 0.7;0.95; 1" repeatCount="indefinite" fill="remove"/></ellipse><g><animateTransform attributeName="transform" attributeType="XML" type="rotate" from="0 27 31" to="365 27 29" dur="1.5s" begin="1s" repeatCount="indefinite" fill="freeze"/><path d="M28.5 36.34v-26m0 0l-3 10.8h6z"/></g><g><animateTransform attributeName="transform" attributeType="XML" type="rotate" from="0 27 31" to="365 27 29" dur="7.5s" begin="2s" repeatCount="indefinite" fill="freeze"/><path d="M28.435 31.5h20m0 0l-10.8-3v6z"/></g></g><g transform="translate(43.783 13.386)"><ellipse stroke="#ACACAC" cx="29.217" cy="28.42" rx="29.217" ry="28.42"/><g><animateTransform attributeName="transform" attributeType="XML" type="rotate" from="0 27 31" to="365 27 29" dur="1.5s" begin="1s" repeatCount="indefinite" fill="freeze"/><path d="M27.5 37.114v-26m0 0l-3 10.8h6z" stroke="#AEACAC"/></g><g><animateTransform attributeName="transform" attributeType="XML" type="rotate" from="0 27 31" to="365 27 29" dur="7.5s" begin="2s" repeatCount="indefinite" fill="freeze"/><path d="M27.217 32.5h20m0 0l-10.8-3v6z" stroke="#AEACAC"/></g></g><g stroke="#F9F9F9" transform="translate(41 13)"><ellipse cx="29.217" cy="28.42" rx="29.217" ry="28.42"/><g><animateTransform attributeName="transform" attributeType="XML" type="rotate" from="0 27 31" to="365 27 29" dur="1.5s" begin="1s" repeatCount="indefinite" fill="freeze"/><path d="M28.5 35.5v-26m0 0l-3 10.8h6z"/></g><g><animateTransform attributeName="transform" attributeType="XML" type="rotate" from="0 27 31" to="365 27 29" dur="7.5s" begin="2s" repeatCount="indefinite" fill="freeze"/><path d="M28 31.5h20m0 0l-10.8-3v6z"/></g></g><g transform="translate(31.44 93.462)" stroke="#898989"><rect y="6.924" width="45.408" height="7.617" rx="3.808"/><rect x="7.568" width="28.896" height="7.617" rx="3"/></g><g transform="translate(30.064 92.077)" stroke="#AEACAC"><rect y="6.924" width="45.408" height="7.617" rx="3.808"/><rect x="7.568" width="28.896" height="7.617" rx="3"/></g><g stroke="#F9F9F9" transform="translate(28 90)"><rect y="6.924" width="45.408" height="7.617" rx="3.808"/><rect x="7.568" width="28.896" height="7.617" rx="3"/></g></g></g></svg>