<svg width="60" height="60" viewBox="0 0 120 120" xmlns="http://www.w3.org/2000/svg"><title>Page-1</title><g transform="translate(2 2)" stroke-width="3" fill="none" fill-rule="evenodd"><circle stroke="#898989" cx="60" cy="60" r="56"/><circle stroke="#ACACAC" cx="58.5" cy="58.5" r="56.5"/><circle stroke="#F9F9F9" cx="56.5" cy="56.5" r="56.5"/><g transform="translate(58 14)" stroke="#898989"><circle cx="21" cy="21" r="21"/><path d="M13.49 9.11v24.73l20.85-12.36z"/></g><g transform="translate(56 12)" stroke="#ACACAC"><circle cx="21" cy="21" r="21"/><path d="M13.49 9.11v24.73l20.85-12.36z"/></g><g stroke="#F9F9F9" transform="translate(54 11)"><circle cx="21" cy="21" r="21"/><path d="M13.49 9.11v24.73l20.85-12.36z"/></g><g transform="translate(26 81)" stroke="#898989"><rect y="10" width="66" height="11" rx="4"/><rect x="11" width="42" height="11" rx="3"/></g><g transform="translate(24 79)" stroke="#ACACAC"><rect y="10" width="66" height="11" rx="4"/><rect x="11" width="42" height="11" rx="3"/></g><g stroke="#F9F9F9" transform="translate(21 76)"><rect y="10" width="66" height="11" rx="4"/><rect x="11" width="42" height="11" rx="3"/></g><g transform="translate(14 27)" stroke="#898989"><animateTransform attributeName="transform" attributeType="XML" type="rotate" from="-5 70 60" to="-5 70 60" dur="2s" begin="1s" values="-5 70 60; 5 70 60; -5 70 60" keyTimes="0; 0.65; 1" repeatCount="indefinite" fill="freeze"/><path d="M31.916 15.754s3.217 1.308 5.079-2.724c1.86-4.032-1.036-6.491-1.036-6.491L21.014.667S16.129-1.66 14.33 3.65c-1.8 5.31 1.08 5.842 1.08 5.842l16.506 6.26z"/><path d="M16.259 9.302l14.698 6.336-9.591 23.66-14.42-6.092zM1.74 37.106c2.121-5.248 4.13-3.995 4.13-3.995l17.01 6.996s1.415 1.905 0 5.323c-1.415 3.42-3.993 4.936-3.993 4.936L1.739 43.31s-2.121-.957 0-6.205z"/><path d="M27.204 25.335l-1.613 3.37 24.289 9.729 1.865-4.735zm23.903 10.609l2.257-2.687 25.566 8.537s1.76 3.317 1.034 5.127c-.726 1.811-3.633 3.24-3.633 3.24l-25.87-10.42.646-3.797z"/></g><g transform="translate(13 24)" stroke="#ACACAC"><animateTransform attributeName="transform" attributeType="XML" type="rotate" from="-5 70 60" to="10 70 60" dur="2s" begin="1s" values="-5 70 60; 10 70 60; -5 70 60" keyTimes="0; 0.65; 1" repeatCount="indefinite" fill="freeze"/><path d="M31.916 15.754s3.217 1.308 5.079-2.724c1.86-4.032-1.036-6.491-1.036-6.491L21.014.667S16.129-1.66 14.33 3.65c-1.8 5.31 1.08 5.842 1.08 5.842l16.506 6.26z"/><path d="M16.259 9.302l14.698 6.336-9.591 23.66-14.42-6.092zM1.74 37.106c2.121-5.248 4.13-3.995 4.13-3.995l17.01 6.996s1.415 1.905 0 5.323c-1.415 3.42-3.993 4.936-3.993 4.936L1.739 43.31s-2.121-.957 0-6.205z"/><path d="M27.204 25.335l-1.613 3.37 24.289 9.729 1.865-4.735zm23.903 10.609l2.257-2.687 25.566 8.537s1.76 3.317 1.034 5.127c-.726 1.811-3.633 3.24-3.633 3.24l-25.87-10.42.646-3.797z"/></g><g stroke="#F9F9F9" transform="translate(11 22)"><animateTransform attributeName="transform" attributeType="XML" type="rotate" from="-5 70 60" to="15 70 60" dur="2s" begin="1s" values="-5 70 60; 15 70 60; -5 70 60" keyTimes="0; 0.65; 1" repeatCount="indefinite" fill="freeze"/><path d="M31.916 15.754s3.217 1.308 5.079-2.724c1.86-4.032-1.036-6.491-1.036-6.491L21.014.667S16.129-1.66 14.33 3.65c-1.8 5.31 1.08 5.842 1.08 5.842l16.506 6.26z"/><path d="M16.259 9.302l14.698 6.336-9.591 23.66-14.42-6.092zM1.74 37.106c2.121-5.248 4.13-3.995 4.13-3.995l17.01 6.996s1.415 1.905 0 5.323c-1.415 3.42-3.993 4.936-3.993 4.936L1.739 43.31s-2.121-.957 0-6.205z"/><path d="M27.204 25.335l-1.613 3.37 24.289 9.729 1.865-4.735zm23.903 10.609l2.257-2.687 25.566 8.537s1.76 3.317 1.034 5.127c-.726 1.811-3.633 3.24-3.633 3.24l-25.87-10.42.646-3.797z"/></g></g></svg>