<svg xmlns="http://www.w3.org/2000/svg" width="105x" height="80" viewBox="0 0 100 68"><g><path d="M55.777 38.473l6.221-1.133a31.1 31.1 0 0 0-.41-5.324l-6.321-.19a24.89 24.89 0 0 0-2.076-5.931l4.82-4.094a30.832 30.832 0 0 0-3.005-4.417l-5.569 2.999a24.56 24.56 0 0 0-4.771-4.099l2.124-5.954a29.953 29.953 0 0 0-2.357-1.269 31.533 31.533 0 0 0-2.449-1.046l-3.325 5.381a24.574 24.574 0 0 0-6.183-1.174l-1.136-6.22a30.729 30.729 0 0 0-5.32.406l-.191 6.32a24.88 24.88 0 0 0-5.936 2.08l-4.097-4.82a31.19 31.19 0 0 0-4.407 3.006l2.996 5.566a24.573 24.573 0 0 0-4.104 4.778c-2.16-.771-4.196-1.498-5.953-2.127a32.502 32.502 0 0 0-1.265 2.354c-.39.811-.733 1.63-1.049 2.457 1.587.981 3.424 2.119 5.377 3.325a24.772 24.772 0 0 0-1.172 6.186L.001 36.669a30.71 30.71 0 0 0 .407 5.321l6.32.188a25.062 25.062 0 0 0 2.082 5.937L3.992 52.21a30.73 30.73 0 0 0 3.009 4.412l5.563-2.998a24.931 24.931 0 0 0 4.777 4.099l-2.121 5.954a30.53 30.53 0 0 0 2.348 1.258c.813.394 1.633.739 2.462 1.05l3.326-5.375a24.542 24.542 0 0 0 6.175 1.17l1.137 6.221a31.21 31.21 0 0 0 5.323-.407l.194-6.324a24.766 24.766 0 0 0 5.927-2.079l4.093 4.817a30.737 30.737 0 0 0 4.414-2.999l-2.995-5.572a24.646 24.646 0 0 0 4.093-4.772l5.953 2.127c.448-.761.878-1.545 1.268-2.356a33.13 33.13 0 0 0 1.047-2.458l-5.378-3.324a24.747 24.747 0 0 0 1.17-6.181zm-13.475 3.962c-3.002 6.243-10.495 8.872-16.737 5.866-6.244-2.999-8.872-10.493-5.867-16.736 3.002-6.244 10.495-8.873 16.736-5.869 6.242 3.002 8.872 10.494 5.868 16.739z" fill="none" stroke="#E43"/><animateTransform attributeName="transform" begin="0s" dur="3s" type="rotate" from="0 31 37" to="360 31 37" repeatCount="indefinite"/></g><g><path d="M93.068 19.253L99 16.31a21.615 21.615 0 0 0-1.679-4.776l-6.472 1.404a15.142 15.142 0 0 0-3.42-3.819l2.115-6.273a21.79 21.79 0 0 0-2.213-1.238A22.04 22.04 0 0 0 84.98.65l-3.584 5.567a15.124 15.124 0 0 0-5.118-.284L73.335 0a21.595 21.595 0 0 0-4.776 1.672l1.404 6.47a15.159 15.159 0 0 0-3.835 3.419c-2.208-.746-4.38-1.476-6.273-2.114a20.64 20.64 0 0 0-1.244 2.229c-.371.764-.68 1.541-.954 2.329 1.681 1.078 3.612 2.323 5.569 3.579a15.058 15.058 0 0 0-.291 5.145l-5.936 2.945c.368 1.648.929 3.25 1.67 4.769 1.954-.426 4.193-.912 6.468-1.405a15.17 15.17 0 0 0 3.442 3.853l-2.117 6.27c.708.449 1.439.865 2.218 1.236.767.371 1.551.685 2.338.96 1.081-1.68 2.319-3.612 3.583-5.574 1.714.401 3.457.484 5.156.288L82.695 42a21.618 21.618 0 0 0 4.773-1.676 3805.39 3805.39 0 0 1-1.404-6.473 15.152 15.152 0 0 0 3.835-3.436l6.273 2.11c.444-.7.856-1.43 1.225-2.197.372-.777.691-1.569.963-2.361l-5.568-3.586c.389-1.704.477-3.442.276-5.128zm-8.703 4.809a7.057 7.057 0 0 1-12.719-6.117 7.056 7.056 0 1 1 12.719 6.117z" fill="none" stroke="#E43"/><animateTransform attributeName="transform" begin="0s" dur="2s" type="rotate" from="0 78 21" to="-360 78 21" repeatCount="indefinite"/></g></svg>