<svg viewBox="0 0 190 190" xmlns="http://www.w3.org/2000/svg"><g fill="none"><path d="M90.5 0L173 145H8L90.5 0zM90 141c23.196 0 42-19.476 42-43.5S113.196 54 90 54 48 73.476 48 97.5 66.804 141 90 141z" class="triangle" stroke="#F661B6" fill="#FB916F"/><path d="M-1.219 59.489h31.33v-7.031H9.018v-.197l20.53-27.842v-5.513H-.74v7.003h20.137v.225L-1.219 53.948v5.54zm37.377-40.583V59.49h8.493V46.693h8.015c8.55 0 14.484-5.569 14.484-13.894 0-8.352-5.737-13.893-14.062-13.893h-16.93zm8.493 6.722h6.187c4.866 0 7.678 2.587 7.678 7.2 0 4.64-2.84 7.227-7.706 7.227h-6.159V25.628z" stroke="#5A7EFD" stroke-width="4" fill-opacity=".87" fill="#E3F2FD"/><g stroke="#FFBA4F" stroke-width="2"><path d="M157.4 147.5c-8.1 10.7-18.9 19.7-32 25.7-32.2 14.8-68.8 7.7-93.2-15.1"/><path d="M163.4 147.8c-8.8 12.6-21 23.1-35.9 30-34.3 15.8-73.5 8-99.3-16.6"/></g><g stroke="#FFBA4F" stroke-width="2"><path d="M97.7 12.3c29.1 2.7 56 20.4 69.1 48.8 7.8 17 9.5 35.1 6.1 52.1"/><path d="M95.8 7.2c31.7 2.1 61.2 21 75.5 51.9 8.3 18.1 10.1 37.6 6.3 55.7"/></g><path d="M13.2 131.8c-19.5-42.4-1-92.6 41.4-112.1M8.7 133.9C-12 89 7.7 35.8 52.6 15.2" stroke="#FFBA4F" stroke-width="2"/></g></svg>