<svg xmlns="http://www.w3.org/2000/svg" height="250" width="250" viewBox="0 0 250 250"><g fill-rule="evenodd" fill="none"><path stroke="#979797" fill="#FC8585" d="M0 0h250v250H0z"/><path d="M39.2 170c-2.7 0-27 39-24.7 45 5 6 50.2 19 70.5 24l-.3-15S45 182 39.2 170z" fill="#faf7f7" stroke="#979797"/><path d="M74.245 49.3s18.79-8.566 32.885-6.796c14.09 1.77 19.04 9.857 22.46 20.41s3.22 23.678 3.22 23.678.96-8.244 12.7-8.244c4.7 5.894 2.11 14.222 2.11 14.222l-8.87 17.11s11.69-7.13 16.65-12.48c4.55-7.337 18.26-21 11.69-29.288 15.85-8.766 7.64-34.794 0-43.988s-16.74-6.922-23.81-6.922c-6.76-4.428-12.72-9.604-19.03-8.138-7.99 1.857-12.7 5.487-17.12 12.463-8.57 0-16.77.336-24.828 8.522-8.057 8.184-8.057 19.45-8.057 19.45z" fill="#343131" stroke="#979797"/><path d="M93.947 133.57s-3.63 22.16-1.833 26.85c0 0 13.616 10.24 25.866 6.03 12.26-4.22 16.77-11.25 21.88-19.06s4.36-4.22 8.69-13.82c-6.34 2.6-14.11-20.77-14.11-20.77s-11.51 13.6-21.66 18.48c-10.16 4.88-18.833 2.29-18.833 2.29z" fill="#f0ae8c"/><path d="M153.17 62.51s3.33 6.125-5.17 21.603c3.22-2.31 5.43-4.31 5.43-4.31l3.07 8.562C162.63 76.65 158.56 59 158.56 59l-5.39 3.51z" fill="#F71818" stroke="#CFCCCC"/><path fill="#D0011B" stroke="#C5C5C5" d="M161.38 62.474s-2.615 1.063-.466 11.174c2.15 10.11 10.76 23.25 10.76 23.25l.914-6.95 7.928 5.07s-12.44-15.042-14.036-22.553l-2.7-12.7-2.4 2.71z"/><path d="M92.804 137.38c-10.96 9.42-31.1 14.62-31.1 15 9.924 44.78 22.468 66.28 22.468 66.28l10.96 2.18 4.538 2.73s57.14-44.46 79.42-76.27c0 0-25.2-7.43-35.3-16.01 0 0-3.08 13.91-8.82 20.71-5.73 6.8-21.35 15.02-28.81 13.77-7.464-1.25-13.356-6.6-13.356-6.6s2.328-21.79 0-21.79z" fill="#feccab"/><g stroke-width=".8"><path d="M145.542 44.8c-2.13.13-2.95.997-5.264 0-2.314-.998-4.22-3.166-2.777-5.895 1.445-2.73 6.045 3.788 7.033 2.605.987-1.184-3.783-3.435-2.862-6.09.92-2.657 4.01-.944 5.496 0 1.486.942-1.395 3.462 0 3.485 1.394.023 2.56-2.314 4.435-2.154 1.878.16 3.907 4.16 2.433 6.163-1.474 2.002-4.282-2.104-4.777 0-.495 2.104 2.496 2.273 2.345 5.948s-5.114 2.716-6.058 1.036 2.13-5.226 0-5.097z" fill="#F5DEDE" stroke="#C2A0A0"/><path d="M146.857 45.2c-1.424.475-1.12 8.24-6.05 3.302-1.247-4.514 2.5-1.953 2.158-4.514-.342-2.562-4.74-1.515-3.493-5.923 3.405-5.674 4.233 3.502 5.22 3.145s0-6.466 3.612-5.076c3.61 1.39-.555 1.396 0 5.076.555 3.68 6.865 0 4.912 5.41-3.244 5.013-4.934-1.892-6.36-1.42z" fill="#F64D4D" stroke="#BCBCBC"/></g><path d="M130.915 34.2c-2.722.158-3.768 1.218-6.726 0-2.96-1.22-5.394-3.87-3.55-7.205s7.724 4.63 8.985 3.183c1.262-1.446-4.833-4.198-3.657-7.444 1.176-3.246 5.123-1.152 7.022 0 1.898 1.152-1.782 4.233 0 4.26s3.27-2.827 5.667-2.632 4.99 5.085 3.108 7.532c-1.884 2.447-5.472-2.572-6.104 0-.63 2.572 3.19 2.778 2.997 7.27-.193 4.49-6.536 3.318-7.742 1.264-1.206-2.053 2.722-6.387 0-6.23z" fill="#F5DEDE" stroke="#C2A0A0"/><path d="M132.595 34.69c-1.82.58-1.433 10.07-7.73 4.034-1.594-5.517 3.194-2.387 2.757-5.517-.437-3.13-6.057-1.85-4.463-7.24 4.35-6.934 5.407 4.28 6.67 3.846 1.262-.436 0-7.903 4.614-6.205 4.615 1.698-.71 1.707 0 6.205s8.772 0 6.277 6.61c-4.145 6.13-6.304-2.31-8.125-1.733z" fill="#F93434" stroke="#BCBCBC"/><path d="M156.915 56.2c-2.722.158-3.768 1.218-6.726 0-2.96-1.22-5.394-3.87-3.55-7.205s7.724 4.63 8.985 3.184c1.262-1.448-4.833-4.2-3.657-7.446 1.176-3.246 5.123-1.152 7.022 0 1.898 1.152-1.782 4.233 0 4.26s3.27-2.827 5.667-2.632 4.99 5.085 3.108 7.532c-1.884 2.447-5.472-2.572-6.104 0-.63 2.572 3.19 2.778 2.997 7.27-.193 4.49-6.536 3.318-7.742 1.264-1.206-2.053 2.722-6.387 0-6.23z" fill="#F5DEDE" stroke="#C2A0A0"/><path d="M158.595 56.69c-1.82.58-1.433 10.07-7.73 4.034-1.594-5.517 3.194-2.387 2.757-5.517-.437-3.13-6.057-1.85-4.463-7.24 4.35-6.934 5.407 4.28 6.67 3.846 1.262-.436 0-7.903 4.614-6.205 4.615 1.698-.71 1.707 0 6.205s8.772 0 6.277 6.61c-4.145 6.13-6.304-2.31-8.125-1.733z" fill="#F05454" stroke="#BCBCBC"/><path d="M62.3 148l-27.8 17s28.1 41 49.9 58c0 0 3.1 2 5.6 0-16-19-27.7-75-27.7-75z" fill="#f8f7f7" stroke="#979797"/><path d="M181.4 145.71s-57.66 60.05-82.77 78.6c8.85 7.75 113.16-51.08 113.16-51.08l-30.39-27.52z" fill="#FCF9F9" stroke="#B3AFAF"/><path d="M202 179s-87 47-106.9 49l.7 12S185 256 238 224l-31-47z" fill="#f2efef" stroke="#c6c6c6"/><path d="M74.6 48.6s-2.7 36.8 1.9 55.4c6.8 17 11.8 27 18.2 30 6.3 2 15.3-1 26.3-8 11-6 19-20 19-20s9-15.4 8-17.8c0-2.4 0-6.9-4-9.3-5-2.4-11 6.9-11 6.9s-1-33.3-15-40.7c-15-7.3-43.4 3.5-43.4 3.5z" fill="#f3c6ab" stroke="#979797"/><g transform="translate(134 99)"><path d="M4.65 36c2.422-4.057 5.087-9.612 5.087-15.964C9.737 13.686 6.86 13 4.65 13S0 13.685 0 20.036C0 26.388 2.832 31.943 4.65 36z" fill="#B0D4FE"/><circle fill="#549FF6" r="3.5" cx="4.5" cy="9.5"/><circle fill="#549FF6" r="2.5" cx="4.5" cy="2.5"/></g><path d="M90.9 233.2c-2.71.2-3.75 1.2-6.71 0s-5.39-3.87-3.55-7.21c1.85-3.33 7.72 4.61 8.99 3.19 1.27-1.45-4.84-4.2-3.66-7.45 1.17-3.24 5.13-1.148 7.03 0 1.9 1.16-1.8 4.24 0 4.26 1.8 0 3.3-2.82 5.7-2.63 2.4.2 4.9 5.09 3.1 7.54-1.9 2.4-5.5-2.58-6.1 0-.7 2.6 3.1 2.8 3 7.3-.2 4.5-6.6 3.3-7.8 1.2-1.19-2 2.7-6.4 0-6.2z" fill="#f5dede" stroke="#c2a0a0"/><path d="M92.6 233.7c-1.8.6-1.4 10.1-7.73 4-1.6-5.5 3.19-2.4 2.75-5.5-.43-3.12-6.06-1.8-4.46-7.23 4.35-6.94 5.41 4.28 6.67 3.84 1.27-.43 0-7.9 4.57-6.2 4.7 1.7-.7 1.7 0 6.2.8 4.49 8.8 0 6.3 6.59-4.1 6.2-6.3-2.3-8.1-1.7z" fill="#f83535" stroke="#bcbcbc"/><g transform="translate(102 170)"><path d="M3.344 28C5.084 23.943 7 18.388 7 12.036 7 5.686 4.932 5 3.344 5 1.754 5 0 5.685 0 12.036 0 18.388 2.036 23.943 3.344 28z" fill="#BFDBFC"/><circle fill="#549FF6" r="2.5" cx="3.5" cy="2.5"/></g><g transform="translate(111 169)"><path d="M3.344 28C5.084 23.943 7 18.388 7 12.036 7 5.686 4.932 5 3.344 5 1.754 5 0 5.685 0 12.036 0 18.388 2.036 23.943 3.344 28z" fill="#B1D3FB"/><circle fill="#549FF6" r="2.5" cx="3.5" cy="2.5"/></g><g transform="translate(121 165)" fill="#b1d3fb"><path d="M2.866 21C4.358 17.957 6 13.79 6 9.027 6 4.264 4.227 3.75 2.866 3.75 1.506 3.75 0 4.264 0 9.027 0 13.79 1.745 17.957 2.866 21z"/><ellipse cx="3" cy="1.875" ry="1.875" rx="2.143"/></g><g transform="translate(93 165)" fill="#bfdbfc"><path d="M2.866 21C4.358 17.957 6 13.79 6 9.027 6 4.264 4.227 3.75 2.866 3.75 1.506 3.75 0 4.264 0 9.027 0 13.79 1.745 17.957 2.866 21z"/><ellipse cx="3" cy="1.875" ry="1.875" rx="2.143"/></g><g transform="translate(131 159)"><path d="M2.388 18C3.63 15.392 5 11.82 5 7.738c0-4.083-1.477-4.524-2.612-4.524C1.254 3.214 0 3.654 0 7.738 0 11.82 1.454 15.392 2.388 18z" fill="#549FF7"/><ellipse fill="#549FF6" cx="2.5" cy="1.607" ry="1.607" rx="1.786"/></g><g transform="translate(139 148)"><path d="M2.388 18C3.63 15.392 5 11.82 5 7.738c0-4.083-1.477-4.524-2.612-4.524C1.254 3.214 0 3.654 0 7.738 0 11.82 1.454 15.392 2.388 18z" fill="#549FF7"/><ellipse fill="#549FF6" cx="2.5" cy="1.607" ry="1.607" rx="1.786"/></g><g transform="translate(87 157)"><path d="M2.39 18C3.63 15.4 5 11.8 5 7.74c0-4.09-1.48-4.53-2.61-4.53C1.25 3.21 0 3.65 0 7.74 0 11.8 1.45 15.4 2.39 18z" fill="#549ff7"/><ellipse cx="2.5" cy="1.61" ry="1.61" rx="1.79" fill="#549ff6"/></g><path d="M86.8 142s1.6 14 9.9 23c8.3 8 19.3 3 31.3-3 12-7 18-31 18-31" stroke="#549ff6" stroke-width="2"/><g transform="translate(81.3 146)"><path d="M2.39 18C3.63 15.4 5 11.8 5 7.74c0-4.09-1.48-4.53-2.61-4.53C1.25 3.21 0 3.65 0 7.74 0 11.8 1.45 15.4 2.39 18z" fill="#549ff7"/><ellipse rx="1.79" ry="1.61" cy="1.61" cx="2.5" fill="#549ff6"/></g></g></svg>