<svg width="250" height="250" viewBox="0 0 250 250" xmlns="http://www.w3.org/2000/svg"><title>man</title><g stroke="#979797" fill="none" fill-rule="evenodd"><path fill="#FAFAFA" d="M0 0h250v250H0z"/><path d="M243.094 233.196v-34.088c-17.22-10.803-75.193-30.92-75.193-30.92l-8.83-15.678-7.017-4.276s3.878-5.818 6.12-14.568c2.24-8.75-1.054-11.392.81-15.047 1.862-3.656 5.396 2.588 10.254-6.662s4.857-18.032 4.818-22.333c-.038-4.3 0-7.728-5.09-10.756 5.09-29.75 4.025-30.755-1.064-48.125-8.558-7.463-11.755-3.11-11.755-3.11s-12.153-17.028-34.635-14.35c-30.44 3.628-38.66 14.35-43.077 31.292-4.417 16.943 4.417 37.32 4.417 37.32s-5.483 0-5.483 7.728 3.352 20.187 3.352 20.187l6.862 4.268 3.406 20.278 7.01 13.876-7.01 4.276-8.138 15.68S34.845 184.43 9.7 199.107C6 212.872 6 236.528 6 236.528l237.094-3.332z" stroke-width="5"/></g></svg>