<svg xmlns="http://www.w3.org/2000/svg" height="250" width="250" viewBox="0 0 250 250"><circle cx="135" cy="135" r="122" transform="translate(-10.3 -10.3)" color="#000" overflow="visible" fill="#a8a8a8" stroke="#868686" stroke-width="1.27" stroke-linecap="round" stroke-linejoin="round"/><path d="M224 190c1-8-56-22-56-22-5-9-8-14-16-20 12-13 3-38 16-36 6-13.2 9-31.1-1-31.1 5-29.8 7-29.9 2-47.3-10-11.4-29-21.1-47-20.3-31.9 5.1-38.2 15.3-43.6 31.3-4.4 16.9 4.4 37.3 4.4 37.3C74 84 78.3 99 83.1 111c14.3 2 5.6 21 15.4 36-8.2 4-11.4 13-15.7 21 0 0-31.3 8-56.5 23 16.3 19 35.9 48 100.7 53 35-4 66-12 97-54z" fill="#fff" stroke-width="5" stroke="#979797" fill-rule="evenodd"/></svg>