<?xml version="1.0" encoding="UTF-8" standalone="no"?>
<svg width="287px" height="243px" viewBox="0 0 287 243" version="1.1" xmlns="http://www.w3.org/2000/svg" xmlns:xlink="http://www.w3.org/1999/xlink">
    <!-- Generator: Sketch 40.1 (33804) - http://www.bohemiancoding.com/sketch -->
    <title>auctionSvg</title>
    <desc>Created with Sketch.</desc>
    <defs>
        <rect id="path-1" x="0" y="34.84" width="180" height="32.16" rx="8"></rect>
        <mask id="mask-2" maskContentUnits="userSpaceOnUse" maskUnits="objectBoundingBox" x="0" y="0" width="180" height="32.16" fill="white">
            <use xlink:href="#path-1"></use>
        </mask>
        <rect id="path-3" x="25" y="0" width="130" height="34.84" rx="8"></rect>
        <mask id="mask-4" maskContentUnits="userSpaceOnUse" maskUnits="objectBoundingBox" x="0" y="0" width="130" height="34.84" fill="white">
            <use xlink:href="#path-3"></use>
        </mask>
        <rect id="path-5" x="61" y="26" width="24" height="54"></rect>
        <mask id="mask-6" maskContentUnits="userSpaceOnUse" maskUnits="objectBoundingBox" x="0" y="0" width="24" height="54" fill="white">
            <use xlink:href="#path-5"></use>
        </mask>
        <rect id="path-7" x="85" y="45" width="115" height="20"></rect>
        <mask id="mask-8" maskContentUnits="userSpaceOnUse" maskUnits="objectBoundingBox" x="0" y="0" width="115" height="20" fill="white">
            <use xlink:href="#path-7"></use>
        </mask>
    </defs>
    <g id="Page-1" stroke="none" stroke-width="1" fill="none" fill-rule="evenodd">
        <g id="auctionSvg" transform="translate(3.000000, -2.000000)" stroke="#979797">
            <g id="bottom" transform="translate(30.000000, 178.000000)" stroke-width="6">
                <use id="Rectangle" mask="url(#mask-2)" xlink:href="#path-1"></use>
                <use id="Rectangle-2" mask="url(#mask-4)" xlink:href="#path-3"></use>
            </g>
            <g id="hammer" transform="translate(196.136858, 98.065802) rotate(33.000000) translate(-196.136858, -98.065802) translate(96.136858, 47.065802)">
                <rect id="Rectangle-3" stroke-width="3" x="0" y="-2.84217094e-14" width="61" height="102" rx="8"></rect>
                <use id="Rectangle-4" mask="url(#mask-6)" stroke-width="6" xlink:href="#path-5"></use>
                <use id="Rectangle-5" mask="url(#mask-8)" stroke-width="6" xlink:href="#path-7"></use>
            </g>
            <g id="allLine" transform="translate(0.000000, 136.000000)" stroke-width="5" stroke-linecap="square">
                <path d="M210.5,41.5 L166.5,0.5" id="Line" transform="translate(188.500000, 21.000000) scale(-1, 1) translate(-188.500000, -21.000000) "></path>
                <path d="M239.605118,52.5070416 L181,39" id="Line-Copy" transform="translate(210.302559, 45.753521) scale(-1, 1) translate(-210.302559, -45.753521) "></path>
                <path d="M240.032248,70 L181,81.4975524" id="Line-Copy-2" transform="translate(210.516124, 75.748776) scale(-1, 1) translate(-210.516124, -75.748776) "></path>
                <path d="M83.5,45.5 L39.5,4.5" id="Line-Copy-5"></path>
                <path d="M59.6051178,48.5070416 L1,35" id="Line-Copy-4"></path>
                <path d="M59.0322479,64 L0,75.4975524" id="Line-Copy-3"></path>
            </g>
        </g>
    </g>
</svg>